<?xml version="1.0" standalone="no"?><svg xmlns="http://www.w3.org/2000/svg" viewBox="0 0 1440 320"><path fill="#2f2f2f" fill-opacity="1" d="M0,256L16,261.3C32,267,64,277,96,272C128,267,160,245,192,202.7C224,160,256,96,288,85.3C320,75,352,117,384,144C416,171,448,181,480,192C512,203,544,213,576,192C608,171,640,117,672,112C704,107,736,149,768,186.7C800,224,832,256,864,245.3C896,235,928,181,960,144C992,107,1024,85,1056,74.7C1088,64,1120,64,1152,90.7C1184,117,1216,171,1248,197.3C1280,224,1312,224,1344,213.3C1376,203,1408,181,1424,170.7L1440,160L1440,320L1424,320C1408,320,1376,320,1344,320C1312,320,1280,320,1248,320C1216,320,1184,320,1152,320C1120,320,1088,320,1056,320C1024,320,992,320,960,320C928,320,896,320,864,320C832,320,800,320,768,320C736,320,704,320,672,320C640,320,608,320,576,320C544,320,512,320,480,320C448,320,416,320,384,320C352,320,320,320,288,320C256,320,224,320,192,320C160,320,128,320,96,320C64,320,32,320,16,320L0,320Z"></path></svg>